<svg width="123" height="123" viewBox="0 0 123 123" fill="none" xmlns="http://www.w3.org/2000/svg">
<g clip-path="url(#clip0_174_177)">
<path d="M9.69104 71.281C11.809 58.5629 20.7132 50.9305 33.8555 50.9305C49.0765 48.1632 69.4642 54.3226 77.0962 48.3885C84.7263 42.4523 82.1825 30.5821 81.3342 22.104C80.4862 13.6259 85.5744 10.6578 85.5744 10.6578C85.5744 10.6578 85.5744 0.907654 89.8145 0.0596261C94.0525 -0.788401 94.9003 7.68971 94.9003 7.68971C94.9003 7.68971 101.685 9.38576 104.227 12.7779C106.771 16.1681 113.555 17.0158 113.555 22.104C113.555 27.1922 102.531 25.0286 102.531 33.5502C102.531 44.9964 104.227 77.639 87.2702 88.6612L79.6382 123H68.6181L68.1941 92.4776H36.8214L35.5494 123H22.8333C22.8333 123 17.7451 93.3253 16.0491 83.997C15.7428 82.3178 15.5235 80.2741 15.472 78.0424C13.2568 80.4437 8.28663 79.7055 9.69104 71.281Z" fill="#84C8F8"/>
</g>
<defs>
<clipPath id="clip0_174_177">
<rect width="123" height="123" fill="white" transform="matrix(-1 0 0 1 123 0)"/>
</clipPath>
</defs>
</svg>
