<svg width="259" height="215" viewBox="0 0 259 215" fill="none" xmlns="http://www.w3.org/2000/svg">
<path d="M246.334 94.0979C260.53 78.092 252.594 57.755 251.622 55.2575C250.65 52.7601 248.966 53.8113 248.089 55.1311C247.195 56.4509 227.767 80.6689 227.767 80.6689H125.655C125.655 80.6689 73.188 5.57255 71.378 2.93247C69.5681 0.292387 68.177 0 66.928 0C65.6714 0 63.7188 0.418852 63.7188 4.03878C63.7188 6.41025 63.7188 43.9779 63.7188 43.9779C63.7188 43.9779 12.5006 73.5074 5.11805 77.5305C-2.24069 81.5693 -0.0275512 86.5809 1.79051 90.4694C3.387 93.9234 24.0483 138.075 24.6093 139.332C25.1627 140.581 26.5538 140.581 26.9808 139.744C27.392 138.906 32.8219 131.389 33.7942 129.721C34.7665 128.061 36.023 128.472 36.8612 129.176C37.3909 129.61 40.4812 131.681 41.7301 132.645C42.9867 133.626 44.3702 132.645 44.7891 131.942C45.216 131.254 51.6101 121.651 52.3056 120.536C53.0012 119.422 53.9734 119.991 54.4004 120.268C54.8116 120.536 57.1826 122.908 58.8504 124.575C60.5182 126.109 61.0792 125.548 62.3282 123.88C62.826 123.232 67.3473 116.371 68.3196 115.391C69.2838 114.419 69.9793 114.972 70.683 115.944C71.3785 116.925 77.9233 127.089 80.2862 130.836C82.6496 134.606 82.3729 136.266 82.3729 137.657C82.3729 139.048 75.4092 214.358 75.4092 214.358H122.454L130.39 161.733C130.39 161.733 178.549 161.733 181.893 161.733C185.229 161.733 192.469 162.847 199.709 169.953C206.949 177.043 212.925 214.074 212.925 214.074H258.997L246.334 94.0979Z" fill="white"/>
</svg>
