<svg width="259" height="259" viewBox="0 0 259 259" fill="none" xmlns="http://www.w3.org/2000/svg">
<path d="M24.8804 9.46973L42.5409 38.672C57.7248 33.751 80.3306 34.7141 94.5514 38.672L111.564 9.88251C139.504 62.071 131.596 95.053 110.278 111.451C113.539 113.491 116.898 115.733 120.37 118.193C209.232 47.2999 289.23 127.145 236.75 198.483H236.346C226.933 212.137 216.087 220.587 204.375 225.006C187.783 231.263 170.714 229.466 153.903 227.086C137.092 224.707 120.646 221.72 104.968 222.837C89.2904 223.954 73.6128 227.977 59.2626 243.63C49.4773 254.298 35.5803 242.813 47.2353 231.433C64.9202 214.161 83.8595 207.483 102.475 206.164C121.091 204.845 138.937 208.536 155.101 210.826C171.264 213.117 185.541 214.136 197.803 209.507C203.558 207.338 209.159 203.922 214.557 198.499H32.3671C23.7553 168.099 22.8407 135.935 32.6342 115.644C3.21339 100.29 -8.61966 64.0378 24.8804 9.48591V9.46973ZM79.5132 87.9953C98.2583 97.036 106.765 89.7112 110.407 74.592C92.0099 63.1798 81.0591 72.342 79.5132 87.9953ZM56.1142 87.9953C54.5683 72.342 43.6174 63.1718 25.2203 74.592C28.8625 89.7112 37.3771 97.0441 56.1142 87.9953Z" fill="white"/>
</svg>
