<svg width="51" height="51" viewBox="0 0 51 51" fill="none" xmlns="http://www.w3.org/2000/svg">
<rect x="0.5" y="0.5" width="50" height="50" rx="25" stroke="white"/>
<path fill-rule="evenodd" clip-rule="evenodd" d="M26.0002 42.021C25.3443 42.021 24.8127 41.4893 24.8127 40.8335V37.6668C24.8127 37.011 25.3443 36.4793 26.0002 36.4793C26.656 36.4793 27.1877 37.011 27.1877 37.6668V40.8335C27.1877 41.4893 26.656 42.021 26.0002 42.021ZM39.1915 38.1164C38.7489 38.6004 37.9978 38.634 37.5138 38.1915L33.9956 34.9748C33.5116 34.5322 33.4779 33.7811 33.9205 33.2971C34.363 32.8131 35.1141 32.7794 35.5982 33.222L39.1164 36.4387C39.6004 36.8812 39.634 37.6323 39.1915 38.1164ZM12.8088 38.1164C12.3662 37.6323 12.4 36.8812 12.884 36.4387L16.4022 33.222C16.8862 32.7794 17.6373 32.8131 18.0799 33.2971C18.5224 33.7811 18.4888 34.5322 18.0048 34.9748L14.4865 38.1915C14.0025 38.634 13.2515 38.6004 12.8088 38.1164ZM26.0002 31.7293C29.7166 31.7293 32.7293 28.7166 32.7293 25.0002C32.7293 21.2838 29.7166 18.271 26.0002 18.271C22.2838 18.271 19.271 21.2838 19.271 25.0002C19.271 28.7166 22.2838 31.7293 26.0002 31.7293ZM35.1043 25.0002C35.1043 30.0283 31.0283 34.1043 26.0002 34.1043C20.9721 34.1043 16.896 30.0283 16.896 25.0002C16.896 19.9721 20.9721 15.896 26.0002 15.896C31.0283 15.896 35.1043 19.9721 35.1043 25.0002ZM43.021 25.0002C43.021 25.656 42.4893 26.1877 41.8335 26.1877H38.6668C38.011 26.1877 37.4793 25.656 37.4793 25.0002C37.4793 24.3443 38.011 23.8127 38.6668 23.8127H41.8335C42.4893 23.8127 43.021 24.3443 43.021 25.0002ZM14.521 25.0002C14.521 25.656 13.9893 26.1877 13.3335 26.1877H10.1668C9.51101 26.1877 8.97933 25.656 8.97933 25.0002C8.97933 24.3443 9.51101 23.8127 10.1668 23.8127H13.3335C13.9893 23.8127 14.521 24.3443 14.521 25.0002ZM18.0431 17.0436C17.5794 17.5074 16.8274 17.5074 16.3637 17.0436L12.8455 13.525C12.3818 13.0612 12.3819 12.3093 12.8457 11.8455C13.3094 11.3818 14.0614 11.3819 14.525 11.8457L18.0431 15.3643C18.5069 15.8281 18.5069 16.5798 18.0431 17.0436ZM33.9569 17.0434C33.4932 16.5797 33.4932 15.8278 33.9569 15.364L37.4755 11.8455C37.9392 11.3818 38.6911 11.3818 39.1548 11.8455C39.6186 12.3093 39.6186 13.0612 39.1548 13.5248L35.6363 17.0434C35.1726 17.5072 34.4207 17.5072 33.9569 17.0434ZM26.0002 13.521C25.3443 13.521 24.8127 12.9893 24.8127 12.3335V9.16683C24.8127 8.51101 25.3443 7.97933 26.0002 7.97933C26.656 7.97933 27.1877 8.51101 27.1877 9.16683V12.3335C27.1877 12.9893 26.656 13.521 26.0002 13.521Z" fill="white"/>
</svg>
